<?xml version="1.0" standalone="no"?>
<!DOCTYPE svg PUBLIC "-//W3C//DTD SVG 20010904//EN"
 "http://www.w3.org/TR/2001/REC-SVG-20010904/DTD/svg10.dtd">
<svg version="1.0" xmlns="http://www.w3.org/2000/svg"
 width="1080.000000pt" height="1080.000000pt" viewBox="0 0 1080.000000 1080.000000"
 preserveAspectRatio="xMidYMid meet">

<g transform="translate(0.000000,1080.000000) scale(0.100000,-0.100000)"
fill="#000000" stroke="none">
<path d="M2990 6760 c-25 -12 -56 -31 -68 -43 -32 -29 -62 -90 -62 -123 0 -15
-6 -43 -12 -62 -11 -28 -10 -38 5 -64 9 -16 17 -47 17 -67 0 -21 6 -59 14 -84
16 -54 10 -67 -44 -87 -33 -13 -217 -93 -270 -118 l-25 -12 25 6 c14 3 72 27
130 54 58 26 122 53 143 60 37 12 40 11 71 -19 17 -17 47 -33 66 -37 26 -4 31
-3 20 5 -12 9 -11 11 9 11 13 0 52 20 87 46 61 43 64 44 64 22 0 -13 5 -29 11
-35 19 -19 -30 -43 -91 -43 -44 -1 -51 -3 -37 -11 26 -15 100 -2 125 21 23 22
55 17 50 -9 -2 -9 -19 -24 -38 -33 -30 -15 -31 -18 -12 -18 13 0 34 11 47 25
l23 26 84 -54 c104 -67 108 -69 108 -64 0 2 -17 15 -37 29 -21 14 -77 50 -125
82 -47 31 -89 64 -92 72 -9 23 -7 52 3 72 6 9 13 34 16 55 3 21 12 37 19 37
30 0 67 74 51 101 -4 6 -8 46 -9 88 -1 89 -15 117 -77 158 -55 36 -128 41
-189 13z m136 -160 c48 -10 52 -13 58 -45 7 -37 -9 -156 -26 -189 -6 -12 -20
-31 -31 -43 l-20 -22 -29 24 c-16 14 -36 25 -44 25 -8 0 -14 5 -14 10 0 6 -14
10 -31 10 -29 0 -31 2 -24 28 3 15 8 45 10 67 2 22 1 29 -2 15 -7 -34 -23 -50
-23 -22 0 12 -5 22 -10 22 -6 0 -9 -13 -8 -30 1 -16 5 -30 8 -30 3 0 6 -12 5
-27 0 -28 -39 -62 -53 -48 -9 9 -9 223 0 255 l7 26 88 -8 c48 -4 111 -12 139
-18z m123 -138 c-12 -31 -28 -52 -40 -52 -11 0 0 30 19 53 8 9 12 17 8 17 -4
0 -4 5 -1 10 13 21 24 -1 14 -28z m-259 -121 c0 -5 16 -15 35 -21 61 -20 40
-80 -28 -80 -16 0 -35 12 -52 32 l-27 32 28 23 c31 24 44 29 44 14z m-70 -116
c14 -19 14 -19 -2 -6 -10 7 -18 18 -18 24 0 6 1 8 3 6 1 -2 9 -13 17 -24z"/>
<path d="M2901 6531 c-9 -6 -1 -10 25 -13 44 -6 55 -1 34 12 -19 12 -41 12
-59 1z"/>
<path d="M3040 6520 c0 -5 18 -10 41 -10 24 0 38 4 34 10 -3 6 -22 10 -41 10
-19 0 -34 -4 -34 -10z"/>
<path d="M3057 6456 c-6 -15 1 -26 15 -26 4 0 8 9 8 20 0 23 -15 27 -23 6z"/>
<path d="M3050 6420 c0 -6 7 -10 15 -10 8 0 15 2 15 4 0 2 -7 6 -15 10 -8 3
-15 1 -15 -4z"/>
<path d="M3040 6386 c0 -9 5 -16 10 -16 6 0 10 4 10 9 0 6 -4 13 -10 16 -5 3
-10 -1 -10 -9z"/>
<path d="M2950 6309 c0 -12 50 -20 67 -10 12 6 6 10 -25 13 -23 2 -42 1 -42
-3z"/>
<path d="M2840 6203 c0 -17 60 -60 95 -68 20 -5 14 1 -21 18 -29 14 -57 33
-63 44 -6 10 -11 13 -11 6z"/>
<path d="M3540 6048 c0 -112 -3 -149 -11 -138 -9 12 -9 11 -4 -5 4 -11 11 -78
16 -150 4 -71 11 -175 15 -231 l7 -100 -79 0 c-56 0 -88 -5 -111 -17 l-32 -17
4 52 4 53 -10 -60 c-6 -33 -16 -91 -22 -130 l-12 -70 -155 -2 -155 -1 -10 -54
c-9 -44 -15 -54 -34 -56 -13 -2 -22 0 -20 5 15 32 63 119 69 123 4 3 11 16 15
29 14 44 -10 13 -44 -58 -33 -68 -51 -82 -51 -40 0 11 39 96 86 190 64 127 90
169 104 169 10 0 20 -5 22 -12 3 -8 6 -6 10 4 5 12 -1 17 -23 20 -29 5 -30 2
-140 -214 l-111 -218 -43 0 c-23 0 -55 7 -72 15 -16 8 -45 17 -64 20 -29 5
-30 4 -11 -4 45 -20 22 -31 -65 -31 -122 0 -136 5 -129 43 3 17 8 32 10 34 2
3 27 -2 55 -11 29 -8 49 -11 47 -7 -3 5 -33 16 -67 25 -48 14 -60 21 -56 34 3
9 10 31 15 48 10 31 9 32 -28 38 -37 6 -39 8 -45 54 -9 62 -13 74 -14 36 -1
-50 10 -94 25 -94 7 0 18 -9 24 -20 10 -18 8 -20 -19 -20 -21 0 -38 10 -61 36
-17 20 -33 34 -36 31 -3 -3 9 -21 26 -41 27 -30 39 -36 72 -36 33 0 39 -3 34
-16 -3 -9 -6 -22 -6 -29 0 -8 -26 -32 -58 -54 l-58 -41 18 -128 c9 -70 33
-255 53 -412 50 -405 63 -501 67 -505 3 -3 675 -8 759 -6 25 1 27 4 33 74 15
160 19 187 30 187 7 0 12 -42 14 -127 2 -70 6 -130 9 -133 2 -3 211 -6 464 -8
l459 -3 0 291 0 290 68 0 68 0 139 -290 139 -290 363 0 c343 0 363 1 355 18
-5 9 -80 165 -168 345 -141 294 -156 330 -141 339 53 29 147 110 188 162 144
178 194 464 129 729 -64 259 -259 437 -558 509 -83 20 -118 22 -689 25 l-603
4 0 -153z m988 -403 c103 -31 155 -103 155 -216 0 -168 -97 -239 -325 -239
l-108 0 0 235 0 235 113 0 c73 0 132 -5 165 -15z m-1010 -235 l22 0 0 -389 c0
-363 -1 -390 -17 -394 -10 -3 -4 -5 13 -6 17 0 39 -10 49 -21 22 -24 43 -27
24 -3 -13 15 -12 15 9 4 39 -21 24 -29 -48 -24 -58 4 -71 2 -76 -11 -5 -12
-21 -16 -70 -16 -35 0 -64 4 -64 9 0 5 15 21 32 35 30 23 34 24 50 9 10 -9 20
-14 23 -11 3 3 -4 13 -15 23 -18 16 -21 16 -42 2 -45 -31 -58 -44 -58 -56 0
-6 -4 -11 -10 -11 -5 0 -10 -4 -10 -8 0 -4 186 -6 413 -4 l413 4 23 -81 c13
-45 21 -84 18 -87 -9 -9 -542 -25 -749 -22 l-196 3 34 84 c35 88 40 106 26 97
-5 -3 -7 16 -5 42 32 358 32 362 -17 362 -12 0 -19 4 -16 9 4 5 0 11 -6 14 -9
2 4 25 34 64 48 61 75 113 59 113 -5 0 -14 -7 -21 -15 -13 -15 -70 -21 -70 -7
1 17 48 83 75 104 16 12 47 25 69 29 l41 6 -40 2 c-23 0 -46 -4 -53 -11 -23
-23 -38 -17 -34 13 4 25 6 27 16 14 9 -12 11 -7 8 27 -3 38 1 47 30 75 35 33
61 44 93 37 11 -2 30 -4 43 -4z m-1025 -365 c27 -27 73 -301 108 -642 18 -173
20 -215 9 -228 -26 -32 -72 -8 -84 45 -3 14 -18 131 -32 260 -14 129 -32 284
-40 344 -17 134 -18 208 -2 224 16 16 23 15 41 -3z m403 -195 c17 -6 41 -28
57 -55 25 -38 31 -43 48 -35 13 7 19 7 19 0 0 -5 -4 -10 -9 -10 -5 0 -12 -11
-15 -25 -5 -20 -13 -25 -39 -25 -17 0 -43 -3 -57 -6 -21 -5 -22 -4 -7 6 22 14
22 42 -2 71 -19 24 -19 24 -40 5 -12 -11 -19 -26 -17 -33 3 -7 0 -15 -6 -19
-7 -5 -8 -2 -3 6 6 9 4 11 -4 6 -7 -5 -10 -14 -7 -21 7 -20 -16 -36 -34 -23
-12 8 -11 9 5 4 20 -6 20 -6 0 9 -11 9 -25 13 -33 10 -8 -3 -10 0 -6 7 5 8 2
9 -9 5 -27 -10 -20 19 8 37 14 9 23 22 19 28 -4 6 -3 8 3 5 6 -4 17 1 24 10
11 12 67 53 75 53 1 0 14 -5 30 -10z m72 -167 c-10 -2 -26 -2 -35 0 -10 3 -2
5 17 5 19 0 27 -2 18 -5z m87 -23 c4 -17 10 -28 15 -25 4 3 6 -3 4 -13 -3 -9
0 -28 6 -42 10 -23 10 -22 5 10 -3 25 -2 31 5 20 17 -26 12 -85 -10 -105 -11
-10 -18 -21 -15 -25 2 -3 -4 -6 -13 -6 -9 0 -35 -2 -57 -3 -39 -3 -40 -3 -10
-11 l30 -8 -31 -1 c-33 -1 -59 -22 -46 -36 4 -5 1 -5 -6 -1 -7 4 -10 11 -7 16
2 4 -4 19 -15 33 -25 32 -25 36 5 72 17 21 24 25 25 14 0 -21 19 -28 53 -22
32 6 34 21 7 73 -26 50 -25 52 8 72 37 22 40 22 47 -12z m-305 8 c0 -7 6 -25
14 -40 13 -25 13 -27 -7 -30 -21 -3 -45 -53 -32 -66 4 -4 31 -6 60 -6 51 1 53
1 59 -28 13 -64 10 -68 -41 -67 -33 0 -42 3 -28 8 16 6 13 9 -15 14 -19 3 -44
8 -55 12 -14 4 -12 2 5 -9 14 -8 20 -15 13 -16 -6 0 -25 11 -41 25 -31 26 -32
36 -10 122 8 32 8 46 -2 57 -10 13 -6 17 22 25 46 13 58 13 58 -1z m1113 -89
c18 -5 41 -9 52 -8 17 1 16 2 -5 10 -21 7 -20 8 10 4 19 -2 63 -7 98 -11 34
-4 65 -11 69 -17 4 -7 -6 -8 -28 -3 -19 3 -52 9 -74 11 -31 4 -34 3 -15 -4 15
-5 -73 -8 -222 -8 -157 0 -248 3 -248 9 0 7 31 8 84 3 81 -6 84 -6 91 15 7 21
11 22 82 15 41 -4 89 -11 106 -16z m279 -359 l-3 -130 -202 -1 c-306 -2 -496
-2 -554 0 l-53 1 0 103 0 102 88 22 c77 19 117 22 352 23 145 1 266 3 269 6 2
2 27 4 55 4 l51 0 -3 -130z"/>
<path d="M3518 5394 c-5 -4 -8 -23 -8 -43 0 -20 -3 -52 -6 -72 -5 -31 -9 -36
-28 -32 -20 5 -20 5 -2 -9 14 -11 17 -22 12 -44 -6 -26 -5 -27 6 -9 7 11 14
29 15 40 1 11 7 41 13 67 12 49 10 115 -2 102z"/>
<path d="M3470 5056 c0 -56 -4 -77 -16 -87 -15 -12 -16 -11 -10 11 7 25 6 25
-9 -2 -8 -15 -31 -32 -50 -39 -23 -9 -31 -16 -22 -21 18 -11 29 -10 21 3 -4 7
0 9 13 5 14 -5 30 2 52 23 29 28 31 33 31 105 0 42 -2 76 -5 76 -3 0 -5 -33
-5 -74z"/>
<path d="M3364 5006 c-11 -12 -29 -27 -40 -34 -10 -7 -5 -6 12 2 29 14 61 43
53 49 -2 2 -13 -6 -25 -17z"/>
<path d="M3401 4976 c-7 -8 -27 -18 -44 -22 -18 -4 -26 -9 -19 -12 18 -6 69
17 76 34 7 18 2 18 -13 0z"/>
<path d="M5570 5135 l0 -1065 790 0 790 0 0 305 0 305 -430 0 -430 0 0 90 0
90 305 0 305 0 0 275 0 275 -305 0 -306 0 3 93 3 92 428 3 427 2 0 300 0 300
-790 0 -790 0 0 -1065z"/>
<path d="M7796 6176 c-118 -50 -170 -134 -170 -273 0 -71 4 -89 30 -139 56
-111 159 -161 313 -151 48 2 105 12 128 22 l42 17 3 86 3 87 19 -42 c25 -60
111 -135 176 -156 67 -22 153 -22 221 0 79 25 162 110 185 188 42 146 -20 291
-153 356 -40 20 -63 24 -143 24 -80 0 -103 -4 -144 -24 -108 -53 -160 -139
-161 -264 l0 -77 -53 -20 c-35 -14 -77 -20 -128 -20 -73 0 -77 1 -110 34 -29
29 -34 41 -34 80 0 60 37 105 97 115 50 10 153 -3 193 -24 l30 -16 0 91 0 90
-37 16 c-25 11 -74 18 -143 21 -94 3 -111 1 -164 -21z m713 -170 c69 -36 69
-159 1 -199 -47 -28 -97 -22 -136 17 -28 28 -34 41 -34 78 1 51 18 86 51 104
32 18 83 17 118 0z"/>
<path d="M7200 5905 l0 -285 210 0 210 0 0 80 0 79 -112 3 c-108 3 -113 4
-116 25 -3 21 1 22 80 25 l83 3 3 73 3 72 -86 0 c-84 0 -85 0 -85 25 l0 25
115 0 115 0 0 80 0 80 -210 0 -210 0 0 -285z"/>
<path d="M2978 6123 c6 -2 18 -2 25 0 6 3 1 5 -13 5 -14 0 -19 -2 -12 -5z"/>
<path d="M3048 6113 c18 -2 45 -2 60 0 15 2 0 4 -33 4 -33 0 -45 -2 -27 -4z"/>
<path d="M2480 6043 c-17 -26 -30 -52 -30 -57 0 -6 12 9 26 34 14 25 30 51 36
57 6 7 8 13 4 13 -4 0 -20 -21 -36 -47z"/>
<path d="M3467 6017 c17 -20 34 -45 38 -57 4 -12 9 -19 12 -17 9 9 -35 82 -59
96 -19 12 -17 8 9 -22z"/>
<path d="M2562 5970 c0 -14 2 -19 5 -12 2 6 2 18 0 25 -3 6 -5 1 -5 -13z"/>
<path d="M2416 5879 c-10 -33 -16 -63 -13 -65 2 -3 12 23 21 57 10 33 16 63
13 65 -2 3 -12 -23 -21 -57z"/>
<path d="M2570 5893 l-1 -38 -19 35 c-11 19 -19 31 -20 27 0 -4 8 -22 17 -40
10 -18 20 -63 24 -102 5 -64 6 -60 7 43 1 61 0 112 -3 112 -3 0 -5 -17 -5 -37z"/>
<path d="M3426 5868 c-3 -18 -9 -46 -12 -63 -7 -27 -4 -25 39 23 26 29 47 58
47 64 0 6 -14 -8 -30 -30 -17 -23 -32 -42 -35 -42 -3 0 -2 18 1 40 8 48 -1 54
-10 8z"/>
<path d="M2377 5753 c-9 -25 -15 -48 -13 -50 2 -2 12 16 21 42 10 25 16 47 13
50 -2 2 -12 -17 -21 -42z"/>
<path d="M3385 5710 c-4 -17 -5 -34 -2 -36 3 -3 8 9 12 26 4 17 5 34 2 36 -3
3 -8 -9 -12 -26z"/>
<path d="M2665 5643 c-9 -20 -14 -41 -12 -47 2 -6 11 11 20 37 19 56 14 63 -8
10z"/>
<path d="M2563 5630 c0 -25 2 -35 4 -22 2 12 2 32 0 45 -2 12 -4 2 -4 -23z"/>
<path d="M2740 5654 c25 -7 52 -13 60 -13 21 1 -60 27 -85 28 -11 0 0 -7 25
-15z"/>
<path d="M2332 5620 c-5 -22 -6 -40 -2 -40 7 0 22 71 16 77 -2 2 -8 -14 -14
-37z"/>
<path d="M3371 5644 c0 -11 3 -14 6 -6 3 7 2 16 -1 19 -3 4 -6 -2 -5 -13z"/>
<path d="M2828 5633 c6 -2 18 -2 25 0 6 3 1 5 -13 5 -14 0 -19 -2 -12 -5z"/>
<path d="M2890 5620 c14 -4 34 -8 45 -8 16 0 15 2 -5 8 -14 4 -34 8 -45 8 -16
0 -15 -2 5 -8z"/>
<path d="M2427 5600 c39 -4 77 -11 85 -15 10 -6 10 -5 1 5 -7 7 -42 14 -85 16
l-73 3 72 -9z"/>
<path d="M2968 5603 c6 -2 18 -2 25 0 6 3 1 5 -13 5 -14 0 -19 -2 -12 -5z"/>
<path d="M3010 5601 c0 -4 23 -12 50 -17 28 -6 47 -8 43 -4 -12 11 -93 29 -93
21z"/>
<path d="M3355 5565 c-3 -26 -4 -49 -2 -51 3 -3 8 16 12 41 3 26 4 49 2 51 -3
3 -8 -16 -12 -41z"/>
<path d="M2635 5566 c-6 -8 -27 -16 -47 -19 -31 -5 -36 -3 -31 10 5 13 3 15
-13 8 -10 -5 -62 -8 -114 -8 l-95 1 70 -9 c94 -12 97 -14 45 -28 -57 -15 -91
-32 -84 -42 2 -4 16 -1 31 6 15 8 30 12 35 9 5 -3 15 0 23 6 8 7 41 13 73 15
65 3 136 33 124 52 -6 9 -10 9 -17 -1z m-50 -36 c-11 -5 -27 -9 -35 -9 -9 0
-8 4 5 9 11 5 27 9 35 9 9 0 8 -4 -5 -9z"/>
<path d="M2321 5554 c0 -11 3 -14 6 -6 3 7 2 16 -1 19 -3 4 -6 -2 -5 -13z"/>
<path d="M2700 5564 c31 -5 40 -26 18 -41 -7 -4 -44 -20 -83 -35 -38 -15 -65
-27 -59 -27 7 -1 42 10 78 24 37 14 76 25 89 26 16 0 18 2 7 7 -8 4 -15 16
-15 27 0 15 -7 21 -32 23 -33 2 -33 2 -3 -4z"/>
<path d="M3242 5550 c0 -14 2 -19 5 -12 2 6 2 18 0 25 -3 6 -5 1 -5 -13z"/>
<path d="M2326 5457 c-5 -43 -6 -80 -3 -83 8 -9 19 76 15 121 -3 32 -5 24 -12
-38z"/>
<path d="M3071 5411 c-28 -56 -49 -101 -47 -101 7 0 106 193 102 198 -3 2 -28
-41 -55 -97z"/>
<path d="M2409 5473 c-13 -16 -12 -17 4 -4 9 7 17 15 17 17 0 8 -8 3 -21 -13z"/>
<path d="M2700 5455 c-41 -19 -82 -35 -90 -36 -10 0 -11 -2 -3 -6 12 -4 147
51 168 69 15 13 3 9 -75 -27z"/>
<path d="M2781 5459 c-1 -21 -38 -45 -105 -70 -28 -11 -39 -17 -24 -14 14 3
34 8 44 12 36 14 1 -19 -40 -38 -22 -10 -35 -19 -28 -19 24 0 92 40 92 55 0 7
8 16 19 20 26 8 54 41 48 57 -4 9 -6 8 -6 -3z"/>
<path d="M3390 5454 c-19 -8 -24 -12 -10 -8 14 3 54 9 90 13 l65 8 -55 1 c-30
0 -71 -6 -90 -14z"/>
<path d="M3253 5360 c0 -25 2 -35 4 -22 2 12 2 32 0 45 -2 12 -4 2 -4 -23z"/>
<path d="M2540 5320 c-20 -6 -21 -8 -5 -8 11 0 34 4 50 8 27 7 27 8 5 8 -14 0
-36 -4 -50 -8z"/>
<path d="M3262 5290 c0 -14 2 -19 5 -12 2 6 2 18 0 25 -3 6 -5 1 -5 -13z"/>
</g>
</svg>
